<?xml version="1.0" encoding="UTF-8" standalone="no"?>
<!-- Generated by graphviz version 2.26.3 (20100126.1600)
 -->

<!-- Title: G Pages: 1 -->

<svg
   xmlns:dc="http://purl.org/dc/elements/1.1/"
   xmlns:cc="http://creativecommons.org/ns#"
   xmlns:rdf="http://www.w3.org/1999/02/22-rdf-syntax-ns#"
   xmlns:svg="http://www.w3.org/2000/svg"
   xmlns="http://www.w3.org/2000/svg"
   xmlns:sodipodi="http://sodipodi.sourceforge.net/DTD/sodipodi-0.dtd"
   xmlns:inkscape="http://www.inkscape.org/namespaces/inkscape"
   width="678pt"
   height="200pt"
   viewBox="0.00 0.00 678.00 200.00"
   id="svg2"
   version="1.1"
   inkscape:version="0.47 r22583"
   sodipodi:docname="CollatexSVGExampleJoris_002.svg">
  <metadata
     id="metadata134">
    <rdf:RDF>
      <cc:Work
         rdf:about="">
        <dc:format>image/svg+xml</dc:format>
        <dc:type
           rdf:resource="http://purl.org/dc/dcmitype/StillImage" />
        <dc:title />
      </cc:Work>
    </rdf:RDF>
  </metadata>
  <g
     id="VariantGraph"
     class="graph"
     transform="scale(1) rotate(0) translate(-487, 130)">
    <title
       id="title5">G</title>
    <polygon
       points="0,5 -4,5 -4,-127 1655,-127 1655,5 "
       id="polygon7"
       transform="matrix(0.99987929,0,0,1.4409068,0.09966968,56.363326)"
       style="fill:#ffffff;stroke:#ffffff" />
    <!-- 8 -->
    <g
       id="node1"
       class="node">
      <title
         id="title10">8</title>
      <ellipse
         fill="none"
         stroke="black"
         cx="27"
         cy="-99"
         rx="27"
         ry="18"
         id="ellipse12"
         d="m 54,-99 c 0,9.941125 -12.088312,18 -27,18 -14.911688,0 -27,-8.058875 -27,-18 0,-9.94113 12.088312,-18 27,-18 14.911688,0 27,8.05887 27,18 z" />
      <text
         text-anchor="middle"
         x="27"
         y="-94.4"
         font-family="Times New Roman,serif"
         font-size="14.00"
         id="text14">#</text>
    </g>
    <!-- 10 -->
    <g
       id="node3"
       class="node">
      <title
         id="title17">10</title>
      <ellipse
         fill="none"
         stroke="black"
         cx="173"
         cy="-99"
         rx="44.945"
         ry="18"
         id="ellipse19"
         d="m 217.945,-99 c 0,9.941125 -20.12256,18 -44.945,18 -24.82244,0 -44.945,-8.058875 -44.945,-18 0,-9.94113 20.12256,-18 44.945,-18 24.82244,0 44.945,8.05887 44.945,18 z" />
      <text
         text-anchor="middle"
         x="173"
         y="-94.4"
         font-family="Times New Roman,serif"
         font-size="14.00"
         id="text21">the black</text>
    </g>
    <!-- 8&#45;&gt;10 -->
    <g
       id="edge2"
       class="edge">
      <title
         id="title24">8-&gt;10</title>
      <path
         d="M54.1193,-99C71.9881,-99 96.0248,-99 117.808,-99"
         id="path26"
         stroke="black"
         fill="none" />
      <polygon
         points="117.955,-102.5 127.955,-99 117.955,-95.5001 117.955,-102.5"
         id="polygon28"
         stroke="black"
         fill="black" />
      <text
         x="91"
         y="-102.4"
         font-size="14.00"
         id="text30"
         text-anchor="middle"
         font-family="Times New Roman,serif">A,B,C</text>
    </g>
    <!-- 9 -->
    <!-- 11 -->
    <g
       id="node4"
       class="node">
      <title
         id="title40">11</title>
      <ellipse
         fill="none"
         stroke="black"
         cx="515"
         cy="-72"
         rx="27"
         ry="18"
         id="ellipse42"
         d="m 542,-72 c 0,9.941125 -12.08831,18 -27,18 -14.91169,0 -27,-8.058875 -27,-18 0,-9.941125 12.08831,-18 27,-18 14.91169,0 27,8.058875 27,18 z" />
      <text
         text-anchor="middle"
         x="515"
         y="-67.4"
         font-family="Times New Roman,serif"
         font-size="14.00"
         id="text44">cat</text>
    </g>
    <!-- 10&#45;&gt;11 -->
    <g
       id="edge4"
       class="edge">
      <title
         id="title47">10-&gt;11</title>
      <path
         fill="none"
         stroke="black"
         d="M217.033,-102.942C223.392,-103.381 229.861,-103.757 236,-104 302.886,-106.65 346.108,-112.144 442,-99 456.295,-97.0405 471.366,-92.0181 484.078,-86.8289"
         id="path49" />
      <polygon
         fill="black"
         stroke="black"
         points="485.478,-90.0366 493.287,-82.8761 482.717,-83.6041 485.478,-90.0366"
         id="polygon51" />
      <text
         text-anchor="middle"
         x="355"
         y="-110.4"
         font-family="Times New Roman,serif"
         font-size="14.00"
         id="text53">A</text>
    </g>
    <!-- 12 -->
    <g
       id="node5"
       class="node">
      <title
         id="title56">12</title>
      <ellipse
         fill="none"
         stroke="black"
         cx="305"
         cy="-72"
         rx="27"
         ry="18"
         id="ellipse58"
         d="m 332,-72 c 0,9.941125 -12.08831,18 -27,18 -14.91169,0 -27,-8.058875 -27,-18 0,-9.941125 12.08831,-18 27,-18 14.91169,0 27,8.058875 27,18 z" />
      <text
         text-anchor="middle"
         x="305"
         y="-67.4"
         font-family="Times New Roman,serif"
         font-size="14.00"
         id="text60">and</text>
    </g>
    <!-- 10&#45;&gt;12 -->
    <g
       id="edge8"
       class="edge">
      <title
         id="title63">10-&gt;12</title>
      <path
         fill="none"
         stroke="black"
         d="M213.322,-90.7524C231.027,-87.1307 251.654,-82.9116 268.854,-79.3935"
         id="path65" />
      <polygon
         fill="black"
         stroke="black"
         points="269.968,-82.7382 279.064,-77.3051 268.565,-75.8802 269.968,-82.7382"
         id="polygon67" />
      <text
         text-anchor="middle"
         x="248"
         y="-88.4"
         font-family="Times New Roman,serif"
         font-size="14.00"
         id="text69">B,C</text>
    </g>
    <!-- 11&#45;&gt;9 -->
    <g
       id="edge6"
       class="edge">
      <title
         id="title72">11-&gt;9</title>
      <path
         fill="none"
         stroke="black"
         d="M542.146,-72C560.643,-72 585.372,-72 605.713,-72"
         id="path74" />
      <polygon
         fill="black"
         stroke="black"
         points="605.894,-75.5001 615.894,-72 605.894,-68.5001 605.894,-75.5001"
         id="polygon76" />
      <text
         text-anchor="middle"
         x="579"
         y="-75.4"
         font-family="Times New Roman,serif"
         font-size="14.00"
         id="text78">A,B,C</text>
    </g>
    <!-- 13 -->
    <g
       id="node6"
       class="node">
      <title
         id="title81">13</title>
      <ellipse
         fill="none"
         stroke="black"
         cx="410"
         cy="-72"
         rx="30.8577"
         ry="18"
         id="ellipse83"
         d="m 440.8577,-72 c 0,9.941125 -13.81546,18 -30.8577,18 -17.04224,0 -30.8577,-8.058875 -30.8577,-18 0,-9.941125 13.81546,-18 30.8577,-18 17.04224,0 30.8577,8.058875 30.8577,18 z" />
      <text
         text-anchor="middle"
         x="410"
         y="-67.4"
         font-family="Times New Roman,serif"
         font-size="14.00"
         id="text85">white</text>
    </g>
    <!-- 12&#45;&gt;13 -->
    <g
       id="edge10"
       class="edge">
      <title
         id="title88">12-&gt;13</title>
      <path
         fill="none"
         stroke="black"
         d="M332.04,-72C343.243,-72 356.487,-72 368.85,-72"
         id="path90" />
      <polygon
         fill="black"
         stroke="black"
         points="368.963,-75.5001 378.963,-72 368.963,-68.5001 368.963,-75.5001"
         id="polygon92" />
      <text
         text-anchor="middle"
         x="355"
         y="-75.4"
         font-family="Times New Roman,serif"
         font-size="14.00"
         id="text94">B</text>
    </g>
    <!-- 14 -->
    <g
       id="node7"
       class="node">
      <title
         id="title97">14</title>
      <ellipse
         fill="none"
         stroke="black"
         cx="410"
         cy="-18"
         rx="31.0281"
         ry="18"
         id="ellipse99"
         d="m 441.0281,-18 c 0,9.9411255 -13.89175,18 -31.0281,18 -17.13635,0 -31.0281,-8.0588745 -31.0281,-18 0,-9.941125 13.89175,-18 31.0281,-18 17.13635,0 31.0281,8.058875 31.0281,18 z" />
      <text
         text-anchor="middle"
         x="410"
         y="-13.4"
         font-family="Times New Roman,serif"
         font-size="14.00"
         id="text101">green</text>
    </g>
    <!-- 12&#45;&gt;14 -->
    <g
       id="edge14"
       class="edge">
      <title
         id="title104">12-&gt;14</title>
      <path
         fill="none"
         stroke="black"
         d="M326.502,-60.942C341.047,-53.4618 360.537,-43.4381 377.029,-34.9565"
         id="path106" />
      <polygon
         fill="black"
         stroke="black"
         points="379.041,-37.8578 386.333,-30.1718 375.839,-31.6328 379.041,-37.8578"
         id="polygon108" />
      <text
         text-anchor="middle"
         x="355"
         y="-52.4"
         font-family="Times New Roman,serif"
         font-size="14.00"
         id="text110">C</text>
    </g>
    <!-- 13&#45;&gt;11 -->
    <g
       id="edge12"
       class="edge">
      <title
         id="title113">13-&gt;11</title>
      <path
         fill="none"
         stroke="black"
         d="M441.219,-72C452.721,-72 465.863,-72 477.838,-72"
         id="path115" />
      <polygon
         fill="black"
         stroke="black"
         points="477.991,-75.5001 487.991,-72 477.991,-68.5001 477.991,-75.5001"
         id="polygon117" />
      <text
         text-anchor="middle"
         x="465"
         y="-75.4"
         font-family="Times New Roman,serif"
         font-size="14.00"
         id="text119">B</text>
    </g>
    <!-- 14&#45;&gt;11 -->
    <g
       id="edge16"
       class="edge">
      <title
         id="title122">14-&gt;11</title>
      <path
         fill="none"
         stroke="black"
         d="M433.564,-30.1187C448.525,-37.8129 468.045,-47.8519 484.224,-56.1723"
         id="path124" />
      <polygon
         fill="black"
         stroke="black"
         points="482.81,-59.3809 493.304,-60.8419 486.011,-53.1558 482.81,-59.3809"
         id="polygon126" />
      <text
         text-anchor="middle"
         x="465"
         y="-52.4"
         font-family="Times New Roman,serif"
         font-size="14.00"
         id="text128">C</text>
    </g>
    <g
       class="node"
       id="g2942"
       transform="translate(488.30228,26.666666)">
      <title
         id="title2944">10</title>
      <ellipse
         d="m 217.945,-99 c 0,9.941125 -20.12256,18 -44.945,18 -24.82244,0 -44.945,-8.058875 -44.945,-18 0,-9.94113 20.12256,-18 44.945,-18 24.82244,0 44.945,8.05887 44.945,18 z"
         id="ellipse2946"
         ry="18"
         rx="44.945"
         cy="-99"
         cx="173"
         sodipodi:cx="173"
         sodipodi:cy="-99"
         sodipodi:rx="44.945"
         sodipodi:ry="18"
         style="fill:none;stroke:#000000" />
      <text
         id="text2948"
         font-size="14.00"
         y="-94.400002"
         x="173"
         style="font-size:14px;text-anchor:middle;font-family:'Times New Roman,serif'">the black</text>
    </g>
    <g
       class="node"
       id="g2958"
       transform="translate(488.30228,26.666666)">
      <title
         id="title2960">11</title>
      <ellipse
         d="m 542,-72 c 0,9.941125 -12.08831,18 -27,18 -14.91169,0 -27,-8.058875 -27,-18 0,-9.941125 12.08831,-18 27,-18 14.91169,0 27,8.058875 27,18 z"
         id="ellipse2962"
         ry="18"
         rx="27"
         cy="-72"
         cx="515"
         sodipodi:cx="515"
         sodipodi:cy="-72"
         sodipodi:rx="27"
         sodipodi:ry="18"
         style="fill:none;stroke:#000000" />
      <text
         id="text2964"
         font-size="14.00"
         y="-67.400002"
         x="515"
         style="font-size:14px;text-anchor:middle;font-family:'Times New Roman,serif'">cat</text>
    </g>
    <g
       class="edge"
       id="g2966"
       transform="translate(488.30228,26.666666)">
      <title
         id="title2968">10-&gt;11</title>
      <path
         id="path2970"
         d="m 217.033,-102.942 c 6.359,-0.439 12.828,-0.815 18.967,-1.058 66.886,-2.65 110.108,-8.144 206,5 14.295,1.9595 29.366,6.9819 42.078,12.1711"
         style="fill:none;stroke:#000000" />
      <polygon
         id="polygon2972"
         points="482.717,-83.6041 485.478,-90.0366 485.478,-90.0366 493.287,-82.8761 "
         style="fill:#000000;stroke:#000000" />
      <text
         id="text2974"
         font-size="14.00"
         y="-110.4"
         x="355"
         style="font-size:14px;text-anchor:middle;font-family:'Times New Roman,serif'">A</text>
    </g>
    <g
       class="node"
       id="g2976"
       transform="translate(488.30228,26.666666)">
      <title
         id="title2978">12</title>
      <ellipse
         d="m 332,-72 c 0,9.941125 -12.08831,18 -27,18 -14.91169,0 -27,-8.058875 -27,-18 0,-9.941125 12.08831,-18 27,-18 14.91169,0 27,8.058875 27,18 z"
         id="ellipse2980"
         ry="18"
         rx="27"
         cy="-72"
         cx="305"
         sodipodi:cx="305"
         sodipodi:cy="-72"
         sodipodi:rx="27"
         sodipodi:ry="18"
         style="fill:none;stroke:#000000" />
      <text
         id="text2982"
         font-size="14.00"
         y="-67.400002"
         x="305"
         style="font-size:14px;text-anchor:middle;font-family:'Times New Roman,serif'">and</text>
    </g>
    <g
       class="edge"
       id="g2984"
       transform="translate(488.30228,26.666666)">
      <title
         id="title2986">10-&gt;12</title>
      <path
         id="path2988"
         d="m 213.322,-90.7524 c 17.705,3.6217 38.332,7.8408 55.532,11.3589"
         style="fill:none;stroke:#000000" />
      <polygon
         id="polygon2990"
         points="268.565,-75.8802 269.968,-82.7382 269.968,-82.7382 279.064,-77.3051 "
         style="fill:#000000;stroke:#000000" />
      <text
         id="text2992"
         font-size="14.00"
         y="-88.400002"
         x="248"
         style="font-size:14px;text-anchor:middle;font-family:'Times New Roman,serif'">B,C</text>
    </g>
    <g
       class="edge"
       id="g2994"
       transform="translate(488.30228,26.666666)">
      <title
         id="title2996">11-&gt;9</title>
      <path
         id="path2998"
         d="m 542.146,-72 c 18.497,0 43.226,0 63.567,0"
         style="fill:none;stroke:#000000" />
      <polygon
         id="polygon3000"
         points="605.894,-68.5001 605.894,-75.5001 605.894,-75.5001 615.894,-72 "
         style="fill:#000000;stroke:#000000" />
      <text
         id="text3002"
         font-size="14.00"
         y="-75.400002"
         x="579"
         style="font-size:14px;text-anchor:middle;font-family:'Times New Roman,serif'">A,B,C</text>
    </g>
    <g
       class="node"
       id="g3004"
       transform="translate(488.30228,26.666666)">
      <title
         id="title3006">13</title>
      <ellipse
         d="m 440.8577,-72 c 0,9.941125 -13.81546,18 -30.8577,18 -17.04224,0 -30.8577,-8.058875 -30.8577,-18 0,-9.941125 13.81546,-18 30.8577,-18 17.04224,0 30.8577,8.058875 30.8577,18 z"
         id="ellipse3008"
         ry="18"
         rx="30.8577"
         cy="-72"
         cx="410"
         sodipodi:cx="410"
         sodipodi:cy="-72"
         sodipodi:rx="30.8577"
         sodipodi:ry="18"
         style="fill:none;stroke:#000000" />
      <text
         id="text3010"
         font-size="14.00"
         y="-67.400002"
         x="410"
         style="font-size:14px;text-anchor:middle;font-family:'Times New Roman,serif'">white</text>
    </g>
    <g
       class="edge"
       id="g3012"
       transform="translate(488.30228,26.666666)">
      <title
         id="title3014">12-&gt;13</title>
      <path
         id="path3016"
         d="m 332.04,-72 c 11.203,0 24.447,0 36.81,0"
         style="fill:none;stroke:#000000" />
      <polygon
         id="polygon3018"
         points="368.963,-68.5001 368.963,-75.5001 368.963,-75.5001 378.963,-72 "
         style="fill:#000000;stroke:#000000" />
      <text
         id="text3020"
         font-size="14.00"
         y="-75.400002"
         x="355"
         style="font-size:14px;text-anchor:middle;font-family:'Times New Roman,serif'">B</text>
    </g>
    <g
       class="node"
       id="g3022"
       transform="translate(488.30228,26.666666)">
      <title
         id="title3024">14</title>
      <ellipse
         d="m 441.0281,-18 c 0,9.9411255 -13.89175,18 -31.0281,18 -17.13635,0 -31.0281,-8.0588745 -31.0281,-18 0,-9.941125 13.89175,-18 31.0281,-18 17.13635,0 31.0281,8.058875 31.0281,18 z"
         id="ellipse3026"
         ry="18"
         rx="31.028099"
         cy="-18"
         cx="410"
         sodipodi:cx="410"
         sodipodi:cy="-18"
         sodipodi:rx="31.028099"
         sodipodi:ry="18"
         style="fill:none;stroke:#000000" />
      <text
         id="text3028"
         font-size="14.00"
         y="-13.4"
         x="410"
         style="font-size:14px;text-anchor:middle;font-family:'Times New Roman,serif'">green</text>
    </g>
    <g
       class="edge"
       id="g3030"
       transform="translate(488.30228,26.666666)">
      <title
         id="title3032">12-&gt;14</title>
      <path
         id="path3034"
         d="m 326.502,-60.942 c 14.545,7.4802 34.035,17.5039 50.527,25.9855"
         style="fill:none;stroke:#000000" />
      <polygon
         id="polygon3036"
         points="375.839,-31.6328 379.041,-37.8578 379.041,-37.8578 386.333,-30.1718 "
         style="fill:#000000;stroke:#000000" />
      <text
         id="text3038"
         font-size="14.00"
         y="-52.400002"
         x="355"
         style="font-size:14px;text-anchor:middle;font-family:'Times New Roman,serif'">C</text>
    </g>
    <g
       class="edge"
       id="g3040"
       transform="translate(488.30228,26.666666)">
      <title
         id="title3042">13-&gt;11</title>
      <path
         id="path3044"
         d="m 441.219,-72 c 11.502,0 24.644,0 36.619,0"
         style="fill:none;stroke:#000000" />
      <polygon
         id="polygon3046"
         points="477.991,-68.5001 477.991,-75.5001 477.991,-75.5001 487.991,-72 "
         style="fill:#000000;stroke:#000000" />
      <text
         id="text3048"
         font-size="14.00"
         y="-75.400002"
         x="465"
         style="font-size:14px;text-anchor:middle;font-family:'Times New Roman,serif'">B</text>
    </g>
    <g
       class="edge"
       id="g3050"
       transform="translate(488.30228,26.666666)">
      <title
         id="title3052">14-&gt;11</title>
      <path
         id="path3054"
         d="m 433.564,-30.1187 c 14.961,-7.6942 34.481,-17.7332 50.66,-26.0536"
         style="fill:none;stroke:#000000" />
      <polygon
         id="polygon3056"
         points="486.011,-53.1558 482.81,-59.3809 482.81,-59.3809 493.304,-60.8419 "
         style="fill:#000000;stroke:#000000" />
      <text
         id="text3058"
         font-size="14.00"
         y="-52.400002"
         x="465"
         style="font-size:14px;text-anchor:middle;font-family:'Times New Roman,serif'">C</text>
    </g>
    <g
       transform="translate(975.99989,53.333331)"
       id="g3060"
       class="node">
      <title
         id="title3062">10</title>
      <ellipse
         style="fill:none;stroke:#000000"
         sodipodi:ry="18"
         sodipodi:rx="44.945"
         sodipodi:cy="-99"
         sodipodi:cx="173"
         cx="173"
         cy="-99"
         rx="44.945"
         ry="18"
         id="ellipse3064"
         d="m 217.945,-99 c 0,9.941125 -20.12256,18 -44.945,18 -24.82244,0 -44.945,-8.058875 -44.945,-18 0,-9.94113 20.12256,-18 44.945,-18 24.82244,0 44.945,8.05887 44.945,18 z" />
      <text
         style="font-size:14px;text-anchor:middle;font-family:'Times New Roman,serif'"
         x="173"
         y="-94.400002"
         font-size="14.00"
         id="text3066">the black</text>
    </g>
    <g
       transform="translate(975.99989,53.333331)"
       id="g3068"
       class="node">
      <title
         id="title3070">11</title>
      <ellipse
         style="fill:none;stroke:#000000"
         sodipodi:ry="18"
         sodipodi:rx="27"
         sodipodi:cy="-72"
         sodipodi:cx="515"
         cx="515"
         cy="-72"
         rx="27"
         ry="18"
         id="ellipse3072"
         d="m 542,-72 c 0,9.941125 -12.08831,18 -27,18 -14.91169,0 -27,-8.058875 -27,-18 0,-9.941125 12.08831,-18 27,-18 14.91169,0 27,8.058875 27,18 z" />
      <text
         style="font-size:14px;text-anchor:middle;font-family:'Times New Roman,serif'"
         x="515"
         y="-67.400002"
         font-size="14.00"
         id="text3074">cat</text>
    </g>
    <g
       transform="translate(975.99989,53.333331)"
       id="g3076"
       class="edge">
      <title
         id="title3078">10-&gt;11</title>
      <path
         style="fill:none;stroke:#000000"
         d="m 217.033,-102.942 c 6.359,-0.439 12.828,-0.815 18.967,-1.058 66.886,-2.65 110.108,-8.144 206,5 14.295,1.9595 29.366,6.9819 42.078,12.1711"
         id="path3080" />
      <polygon
         style="fill:#000000;stroke:#000000"
         points="485.478,-90.0366 493.287,-82.8761 482.717,-83.6041 485.478,-90.0366 "
         id="polygon3082" />
      <text
         style="font-size:14px;text-anchor:middle;font-family:'Times New Roman,serif'"
         x="355"
         y="-110.4"
         font-size="14.00"
         id="text3084">A</text>
    </g>
    <g
       transform="translate(975.99989,53.333331)"
       id="g3086"
       class="node">
      <title
         id="title3088">12</title>
      <ellipse
         style="fill:none;stroke:#000000"
         sodipodi:ry="18"
         sodipodi:rx="27"
         sodipodi:cy="-72"
         sodipodi:cx="305"
         cx="305"
         cy="-72"
         rx="27"
         ry="18"
         id="ellipse3090"
         d="m 332,-72 c 0,9.941125 -12.08831,18 -27,18 -14.91169,0 -27,-8.058875 -27,-18 0,-9.941125 12.08831,-18 27,-18 14.91169,0 27,8.058875 27,18 z" />
      <text
         style="font-size:14px;text-anchor:middle;font-family:'Times New Roman,serif'"
         x="305"
         y="-67.400002"
         font-size="14.00"
         id="text3092">and</text>
    </g>
    <g
       transform="translate(975.99989,53.333331)"
       id="g3094"
       class="edge">
      <title
         id="title3096">10-&gt;12</title>
      <path
         style="fill:none;stroke:#000000"
         d="m 213.322,-90.7524 c 17.705,3.6217 38.332,7.8408 55.532,11.3589"
         id="path3098" />
      <polygon
         style="fill:#000000;stroke:#000000"
         points="269.968,-82.7382 279.064,-77.3051 268.565,-75.8802 269.968,-82.7382 "
         id="polygon3100" />
      <text
         style="font-size:14px;text-anchor:middle;font-family:'Times New Roman,serif'"
         x="248"
         y="-88.400002"
         font-size="14.00"
         id="text3102">B,C</text>
    </g>
    <g
       transform="translate(975.99989,53.333331)"
       id="g3104"
       class="edge">
      <title
         id="title3106">11-&gt;9</title>
      <path
         style="fill:none;stroke:#000000"
         d="m 542.146,-72 c 18.497,0 43.226,0 63.567,0"
         id="path3108" />
      <polygon
         style="fill:#000000;stroke:#000000"
         points="605.894,-75.5001 615.894,-72 605.894,-68.5001 605.894,-75.5001 "
         id="polygon3110" />
      <text
         style="font-size:14px;text-anchor:middle;font-family:'Times New Roman,serif'"
         x="579"
         y="-75.400002"
         font-size="14.00"
         id="text3112">A,B,C</text>
    </g>
    <g
       transform="translate(975.99989,53.333331)"
       id="g3114"
       class="node">
      <title
         id="title3116">13</title>
      <ellipse
         style="fill:none;stroke:#000000"
         sodipodi:ry="18"
         sodipodi:rx="30.8577"
         sodipodi:cy="-72"
         sodipodi:cx="410"
         cx="410"
         cy="-72"
         rx="30.8577"
         ry="18"
         id="ellipse3118"
         d="m 440.8577,-72 c 0,9.941125 -13.81546,18 -30.8577,18 -17.04224,0 -30.8577,-8.058875 -30.8577,-18 0,-9.941125 13.81546,-18 30.8577,-18 17.04224,0 30.8577,8.058875 30.8577,18 z" />
      <text
         style="font-size:14px;text-anchor:middle;font-family:'Times New Roman,serif'"
         x="410"
         y="-67.400002"
         font-size="14.00"
         id="text3120">white</text>
    </g>
    <g
       transform="translate(975.99989,53.333331)"
       id="g3122"
       class="edge">
      <title
         id="title3124">12-&gt;13</title>
      <path
         style="fill:none;stroke:#000000"
         d="m 332.04,-72 c 11.203,0 24.447,0 36.81,0"
         id="path3126" />
      <polygon
         style="fill:#000000;stroke:#000000"
         points="368.963,-75.5001 378.963,-72 368.963,-68.5001 368.963,-75.5001 "
         id="polygon3128" />
      <text
         style="font-size:14px;text-anchor:middle;font-family:'Times New Roman,serif'"
         x="355"
         y="-75.400002"
         font-size="14.00"
         id="text3130">B</text>
    </g>
    <g
       transform="translate(975.99989,53.333331)"
       id="g3132"
       class="node">
      <title
         id="title3134">14</title>
      <ellipse
         style="fill:none;stroke:#000000"
         sodipodi:ry="18"
         sodipodi:rx="31.028099"
         sodipodi:cy="-18"
         sodipodi:cx="410"
         cx="410"
         cy="-18"
         rx="31.028099"
         ry="18"
         id="ellipse3136"
         d="m 441.0281,-18 c 0,9.9411255 -13.89175,18 -31.0281,18 -17.13635,0 -31.0281,-8.0588745 -31.0281,-18 0,-9.941125 13.89175,-18 31.0281,-18 17.13635,0 31.0281,8.058875 31.0281,18 z" />
      <text
         style="font-size:14px;text-anchor:middle;font-family:'Times New Roman,serif'"
         x="410"
         y="-13.4"
         font-size="14.00"
         id="text3138">green</text>
    </g>
    <g
       transform="translate(975.99989,53.333331)"
       id="g3140"
       class="edge">
      <title
         id="title3142">12-&gt;14</title>
      <path
         style="fill:none;stroke:#000000"
         d="m 326.502,-60.942 c 14.545,7.4802 34.035,17.5039 50.527,25.9855"
         id="path3144" />
      <polygon
         style="fill:#000000;stroke:#000000"
         points="379.041,-37.8578 386.333,-30.1718 375.839,-31.6328 379.041,-37.8578 "
         id="polygon3146" />
      <text
         style="font-size:14px;text-anchor:middle;font-family:'Times New Roman,serif'"
         x="355"
         y="-52.400002"
         font-size="14.00"
         id="text3148">C</text>
    </g>
    <g
       transform="translate(975.99989,53.333331)"
       id="g3150"
       class="edge">
      <title
         id="title3152">13-&gt;11</title>
      <path
         style="fill:none;stroke:#000000"
         d="m 441.219,-72 c 11.502,0 24.644,0 36.619,0"
         id="path3154" />
      <polygon
         style="fill:#000000;stroke:#000000"
         points="477.991,-75.5001 487.991,-72 477.991,-68.5001 477.991,-75.5001 "
         id="polygon3156" />
      <text
         style="font-size:14px;text-anchor:middle;font-family:'Times New Roman,serif'"
         x="465"
         y="-75.400002"
         font-size="14.00"
         id="text3158">B</text>
    </g>
    <g
       transform="translate(975.99989,53.333331)"
       id="g3160"
       class="edge">
      <title
         id="title3162">14-&gt;11</title>
      <path
         style="fill:none;stroke:#000000"
         d="m 433.564,-30.1187 c 14.961,-7.6942 34.481,-17.7332 50.66,-26.0536"
         id="path3164" />
      <polygon
         style="fill:#000000;stroke:#000000"
         points="482.81,-59.3809 493.304,-60.8419 486.011,-53.1558 482.81,-59.3809 "
         id="polygon3166" />
      <text
         style="font-size:14px;text-anchor:middle;font-family:'Times New Roman,serif'"
         x="465"
         y="-52.400002"
         font-size="14.00"
         id="text3168">C</text>
    </g>
    <g
       class="node"
       id="g3170"
       transform="translate(1593.6583,80.707488)">
      <title
         id="title3172">8</title>
      <ellipse
         d="m 54,-99 c 0,9.941125 -12.088312,18 -27,18 -14.911688,0 -27,-8.058875 -27,-18 0,-9.94113 12.088312,-18 27,-18 14.911688,0 27,8.05887 27,18 z"
         id="ellipse3174"
         ry="18"
         rx="27"
         cy="-99"
         cx="27"
         sodipodi:cx="27"
         sodipodi:cy="-99"
         sodipodi:rx="27"
         sodipodi:ry="18"
         style="fill:none;stroke:#000000" />
      <text
         id="text3176"
         font-size="14.00"
         y="-94.400002"
         x="27"
         style="font-size:14px;text-anchor:middle;font-family:'Times New Roman,serif'">#</text>
    </g>
  </g>

</svg>
