<?xml version="1.0" encoding="UTF-8" standalone="no"?>
<!DOCTYPE svg PUBLIC "-//W3C//DTD SVG 1.1//EN" "http://www.w3.org/Graphics/SVG/1.1/DTD/svg11.dtd">
<!-- Generated by graphviz version 2.26.3 (20100126.1600)
 -->
<!-- Title: G Pages: 1 -->
<svg width="678pt" height="131pt" viewBox="0.00 0.00 678.00 131.00" xmlns="http://www.w3.org/2000/svg" xmlns:xlink="http://www.w3.org/1999/xlink">
<g id="VariantGraph" class="graph" transform="scale(0.3) rotate(0) translate(4, 127)">
<title>G</title>
<polygon fill="white" stroke="white" points="-4,5 -4,-127 675,-127 675,5 -4,5"/>
<!-- 8 -->
<g id="node1" class="node"><title>8</title>
<ellipse fill="none" stroke="black" cx="27" cy="-99" rx="27" ry="18"/>
<text text-anchor="middle" x="27" y="-94.4" font-family="Times New Roman,serif" font-size="14.00">#</text>
</g>
<!-- 10 -->
<g id="node3" class="node"><title>10</title>
<ellipse fill="none" stroke="black" cx="173" cy="-99" rx="44.945" ry="18"/>
<text text-anchor="middle" x="173" y="-94.4" font-family="Times New Roman,serif" font-size="14.00">the black</text>
</g>
<!-- 8&#45;&gt;10 -->
<g id="edge2" class="edge"><title>8-&gt;10</title>
<path fill="none" stroke="black" d="M54.1193,-99C71.9881,-99 96.0248,-99 117.808,-99"/>
<polygon fill="black" stroke="black" points="117.955,-102.5 127.955,-99 117.955,-95.5001 117.955,-102.5"/>
<text text-anchor="middle" x="91" y="-102.4" font-family="Times New Roman,serif" font-size="14.00">A,B,C</text>
</g>
<!-- 9 -->
<g id="node2" class="node"><title>9</title>
<ellipse fill="none" stroke="black" cx="643" cy="-72" rx="27" ry="18"/>
<text text-anchor="middle" x="643" y="-67.4" font-family="Times New Roman,serif" font-size="14.00">#</text>
</g>
<!-- 11 -->
<g id="node4" class="node"><title>11</title>
<ellipse fill="none" stroke="black" cx="515" cy="-72" rx="27" ry="18"/>
<text text-anchor="middle" x="515" y="-67.4" font-family="Times New Roman,serif" font-size="14.00">cat</text>
</g>
<!-- 10&#45;&gt;11 -->
<g id="edge4" class="edge"><title>10-&gt;11</title>
<path fill="none" stroke="black" d="M217.033,-102.942C223.392,-103.381 229.861,-103.757 236,-104 302.886,-106.65 346.108,-112.144 442,-99 456.295,-97.0405 471.366,-92.0181 484.078,-86.8289"/>
<polygon fill="black" stroke="black" points="485.478,-90.0366 493.287,-82.8761 482.717,-83.6041 485.478,-90.0366"/>
<text text-anchor="middle" x="355" y="-110.4" font-family="Times New Roman,serif" font-size="14.00">A</text>
</g>
<!-- 12 -->
<g id="node5" class="node"><title>12</title>
<ellipse fill="none" stroke="black" cx="305" cy="-72" rx="27" ry="18"/>
<text text-anchor="middle" x="305" y="-67.4" font-family="Times New Roman,serif" font-size="14.00">and</text>
</g>
<!-- 10&#45;&gt;12 -->
<g id="edge8" class="edge"><title>10-&gt;12</title>
<path fill="none" stroke="black" d="M213.322,-90.7524C231.027,-87.1307 251.654,-82.9116 268.854,-79.3935"/>
<polygon fill="black" stroke="black" points="269.968,-82.7382 279.064,-77.3051 268.565,-75.8802 269.968,-82.7382"/>
<text text-anchor="middle" x="248" y="-88.4" font-family="Times New Roman,serif" font-size="14.00">B,C</text>
</g>
<!-- 11&#45;&gt;9 -->
<g id="edge6" class="edge"><title>11-&gt;9</title>
<path fill="none" stroke="black" d="M542.146,-72C560.643,-72 585.372,-72 605.713,-72"/>
<polygon fill="black" stroke="black" points="605.894,-75.5001 615.894,-72 605.894,-68.5001 605.894,-75.5001"/>
<text text-anchor="middle" x="579" y="-75.4" font-family="Times New Roman,serif" font-size="14.00">A,B,C</text>
</g>
<!-- 13 -->
<g id="node6" class="node"><title>13</title>
<ellipse fill="none" stroke="black" cx="410" cy="-72" rx="30.8577" ry="18"/>
<text text-anchor="middle" x="410" y="-67.4" font-family="Times New Roman,serif" font-size="14.00">white</text>
</g>
<!-- 12&#45;&gt;13 -->
<g id="edge10" class="edge"><title>12-&gt;13</title>
<path fill="none" stroke="black" d="M332.04,-72C343.243,-72 356.487,-72 368.85,-72"/>
<polygon fill="black" stroke="black" points="368.963,-75.5001 378.963,-72 368.963,-68.5001 368.963,-75.5001"/>
<text text-anchor="middle" x="355" y="-75.4" font-family="Times New Roman,serif" font-size="14.00">B</text>
</g>
<!-- 14 -->
<g id="node7" class="node"><title>14</title>
<ellipse fill="none" stroke="black" cx="410" cy="-18" rx="31.0281" ry="18"/>
<text text-anchor="middle" x="410" y="-13.4" font-family="Times New Roman,serif" font-size="14.00">green</text>
</g>
<!-- 12&#45;&gt;14 -->
<g id="edge14" class="edge"><title>12-&gt;14</title>
<path fill="none" stroke="black" d="M326.502,-60.942C341.047,-53.4618 360.537,-43.4381 377.029,-34.9565"/>
<polygon fill="black" stroke="black" points="379.041,-37.8578 386.333,-30.1718 375.839,-31.6328 379.041,-37.8578"/>
<text text-anchor="middle" x="355" y="-52.4" font-family="Times New Roman,serif" font-size="14.00">C</text>
</g>
<!-- 13&#45;&gt;11 -->
<g id="edge12" class="edge"><title>13-&gt;11</title>
<path fill="none" stroke="black" d="M441.219,-72C452.721,-72 465.863,-72 477.838,-72"/>
<polygon fill="black" stroke="black" points="477.991,-75.5001 487.991,-72 477.991,-68.5001 477.991,-75.5001"/>
<text text-anchor="middle" x="465" y="-75.4" font-family="Times New Roman,serif" font-size="14.00">B</text>
</g>
<!-- 14&#45;&gt;11 -->
<g id="edge16" class="edge"><title>14-&gt;11</title>
<path fill="none" stroke="black" d="M433.564,-30.1187C448.525,-37.8129 468.045,-47.8519 484.224,-56.1723"/>
<polygon fill="black" stroke="black" points="482.81,-59.3809 493.304,-60.8419 486.011,-53.1558 482.81,-59.3809"/>
<text text-anchor="middle" x="465" y="-52.4" font-family="Times New Roman,serif" font-size="14.00">C</text>
</g>
</g>
</svg>